<?xml version="1.0" standalone="no"?>
<!DOCTYPE svg PUBLIC "-//W3C//DTD SVG 20010904//EN"
 "http://www.w3.org/TR/2001/REC-SVG-20010904/DTD/svg10.dtd">
<svg version="1.0" xmlns="http://www.w3.org/2000/svg"
 width="978.000000pt" height="1280.000000pt" viewBox="0 0 978.000000 1280.000000"
 preserveAspectRatio="xMidYMid meet">
<metadata>
Created by potrace 1.15, written by Peter Selinger 2001-2017
</metadata>
<g transform="translate(0.000000,1280.000000) scale(0.100000,-0.100000)"
fill="#000000" stroke="none">
<path d="M3925 12790 c-781 -50 -1552 -320 -2162 -758 -573 -412 -1012 -928
-1327 -1562 -228 -459 -350 -872 -413 -1405 -31 -267 -22 -722 22 -1030 148
-1033 660 -1953 1455 -2614 263 -220 520 -386 835 -541 404 -199 713 -301
1144 -376 352 -61 842 -71 1211 -23 417 53 807 162 1188 331 63 27 115 48 117
46 1 -2 225 -367 497 -813 272 -445 513 -840 536 -876 l40 -67 -699 -427
c-384 -235 -697 -430 -695 -434 10 -17 419 -686 420 -688 1 -1 314 189 696
422 381 234 697 425 700 425 4 0 267 -426 585 -947 794 -1299 762 -1248 778
-1247 10 1 612 361 685 410 2 1 -301 500 -673 1109 -372 609 -675 1108 -673
1109 2 1 315 193 695 425 381 233 693 427 693 431 0 7 -402 672 -416 689 -2 2
-317 -189 -700 -423 -384 -235 -701 -423 -704 -419 -6 6 -1049 1713 -1066
1744 -2 4 29 33 69 65 581 470 1024 1068 1296 1752 211 531 313 1149 281 1709
-45 808 -281 1523 -712 2160 -301 443 -712 846 -1173 1149 -487 319 -1022 530
-1585 625 -284 48 -662 67 -945 49z m685 -835 c508 -72 935 -228 1352 -492
723 -458 1231 -1146 1453 -1968 134 -497 150 -1085 44 -1575 -176 -808 -649
-1531 -1324 -2025 -382 -280 -871 -487 -1355 -574 -221 -40 -375 -53 -625 -53
-223 1 -306 6 -490 33 -805 118 -1590 572 -2108 1219 -394 491 -622 1031 -714
1690 -22 158 -25 663 -5 810 49 350 119 614 240 900 373 883 1116 1581 1997
1876 291 97 530 146 870 178 92 9 566 -4 665 -19z"/>
</g>
</svg>
